<?xml version="1.0" encoding="UTF-8" standalone="no" ?>
<!DOCTYPE svg PUBLIC "-//W3C//DTD SVG 1.1//EN" "http://www.w3.org/Graphics/SVG/1.1/DTD/svg11.dtd">
<svg xmlns="http://www.w3.org/2000/svg" xmlns:xlink="http://www.w3.org/1999/xlink" version="1.1" width="731" height="731" viewBox="0 0 640 640" xml:space="preserve">
<desc>Created with Fabric.js 5.3.0</desc>
<defs>
</defs>
<g transform="matrix(1.1434645015 0 0 1.1434645015 311.5210807844 299.4278941755)" id="NcU_IfJK0w2zI5I0a9O1e"  >
<path style="stroke: rgb(0,0,0); stroke-width: 0; stroke-dasharray: none; stroke-linecap: butt; stroke-dashoffset: 0; stroke-linejoin: miter; stroke-miterlimit: 4; fill: rgb(38,78,202); fill-rule: nonzero; opacity: 1;"  transform=" translate(0.0000057656, 0.0000152111)" d="M -252.20816 -111.07659 C -254.17049 -110.02299 -255.39181 -107.97305999999999 -255.3842 -105.74579 C -255.37659 -103.51851 -254.14127 -101.47699 -252.17179 -100.43683 C -196.93004 -71.26156 -132.72780999999998 -44.40159 -90.20683 -2.425759999999997 C -45.071209999999994 42.1312 -128.62315999999998 109.36294000000001 -106.22488999999999 187.08377000000002 C -83.94984 264.37702 29.180380000000014 251.32135 99.33915000000002 244.81082 L 99.33915000000002 244.81082 C 100.17693000000001 244.73308 101.00614000000002 244.58099 101.81698000000002 244.35636 C 156.76591000000002 229.13377 237.85172 208.19389999999999 253.36504000000002 161.36666 C 268.98891000000003 114.20572 189.64746000000002 138.79885 163.09379 56.05019999999999 C 136.54013 -26.698440000000005 198.94061000000002 -111.18307000000001 147.15038 -169.62792000000002 C 97.53018000000002 -225.62390000000002 64.26481000000001 -234.43113000000002 15.77806000000001 -249.19268000000002 L 15.77806000000001 -249.19268000000002 C 11.53960000000001 -250.48306000000002 6.9616900000000115 -250.03154000000004 3.05698000000001 -247.93802000000002 z" stroke-linecap="round" />
</g>
</svg>